<?xml version="1.0" encoding="UTF-8" standalone="no"?>
<!-- Generator: Adobe Illustrator 16.0.0, SVG Export Plug-In . SVG Version: 6.00 Build 0)  -->

<svg
   xmlns:dc="http://purl.org/dc/elements/1.1/"
   xmlns:cc="http://creativecommons.org/ns#"
   xmlns:rdf="http://www.w3.org/1999/02/22-rdf-syntax-ns#"
   xmlns:svg="http://www.w3.org/2000/svg"
   xmlns="http://www.w3.org/2000/svg"
   xmlns:sodipodi="http://sodipodi.sourceforge.net/DTD/sodipodi-0.dtd"
   xmlns:inkscape="http://www.inkscape.org/namespaces/inkscape"
   version="1.1"
   id="svg2"
   inkscape:version="0.92.2 (5c3e80d, 2017-08-06)"
   sodipodi:docname="graphicswall.svg"
   x="0px"
   y="0px"
   width="430.543px"
   height="325.295px"
   viewBox="0 0 430.543 325.295"
   enable-background="new 0 0 430.543 325.295"
   xml:space="preserve"><metadata
     id="metadata20264"><rdf:RDF><cc:Work
         rdf:about=""><dc:format>image/svg+xml</dc:format><dc:type
           rdf:resource="http://purl.org/dc/dcmitype/StillImage" /><dc:title></dc:title></cc:Work></rdf:RDF></metadata><defs
     id="defs20256"><inkscape:perspective
       sodipodi:type="inkscape:persp3d"
       inkscape:vp_x="0 : 526.18109 : 1"
       inkscape:vp_y="0 : 1000 : 0"
       inkscape:vp_z="744.09448 : 526.18109 : 1"
       id="perspective2985"
       inkscape:persp3d-origin="372.04724 : 350.78739 : 1" /></defs><sodipodi:namedview
     units="mm"
     pagecolor="#ffffff"
     bordercolor="#666666"
     borderopacity="1.0"
     inkscape:zoom="1.979899"
     inkscape:cx="125.15415"
     inkscape:cy="211.15465"
     showgrid="false"
     showguides="true"
     fit-margin-top="0"
     fit-margin-left="0"
     id="base"
     inkscape:document-units="mm"
     inkscape:current-layer="layer1"
     inkscape:object-nodes="true"
     inkscape:window-width="1366"
     inkscape:window-height="703"
     inkscape:window-x="0"
     inkscape:window-y="0"
     inkscape:window-maximized="1"
     inkscape:guide-bbox="true"
     fit-margin-right="0"
     fit-margin-bottom="0"
     inkscape:pageopacity="0.0"
     inkscape:pageshadow="2" /><g
     id="layer1"
     transform="translate(-53.643411,-569.625)"
     inkscape:label="Layer 1"
     inkscape:groupmode="layer"><path
       id="path3910"
       inkscape:connector-curvature="0"
       sodipodi:nodetypes="cccccccc"
       d="m 268.908,570.139 9.32,5.536 -9.313,5.563 -0.007,-0.005 L 63.471,703.826 H 63.44 l -9.281,-5.563 z"
       style="fill:#d7d7f4" /><path
       id="path3914"
       inkscape:connector-curvature="0"
       sodipodi:nodetypes="ccccc"
       d="m 278.228,575.675 v 68 L 63.455,771.831 v -68 z"
       style="fill:#e6e6e6" /><path
       id="path3916"
       inkscape:connector-curvature="0"
       d="m 54.144,698.276 v 68 l 9.311,5.555 v -68 z"
       style="fill:#f2f2f2" /><path
       style="opacity:0.98999999;fill:#4d4d4d;fill-opacity:1;stroke:#000000;stroke-width:1.21000004;stroke-miterlimit:4;stroke-dasharray:none;stroke-opacity:0.61194033;paint-order:normal"
       id="path20294"
       d="m 113.84514,728.41504 c -3.8454,-0.17012 -7.69616,-0.18578 -11.54471,-0.1956 -3.452297,-0.14106 -6.946355,-0.46477 -10.31166,-1.29412 -1.437512,-0.35426 -2.673484,-0.83431 -4.06052,-1.33052 -2.965691,-1.20763 -5.553413,-3.13595 -7.22959,-5.90254 -0.308976,-0.50997 -0.547502,-1.05944 -0.821253,-1.58915 -0.938419,-2.50531 -1.802501,-5.30605 -1.305345,-8.01332 0.09727,-0.52972 0.291428,-1.03698 0.437142,-1.55547 0.817891,-1.63361 1.953717,-3.06609 3.547262,-4.01151 4.834337,-2.86811 6.331835,-4.13971 10.726498,-5.21207 2.262567,-0.35235 4.707387,-0.24397 6.472599,1.40331 0.303547,0.28327 0.544977,0.62651 0.817467,0.93976 0.81657,1.26566 0.46282,0.61308 1.06809,1.95404 0,0 -6.340923,3.56725 -6.340923,3.56725 v 0 c -0.51429,-1.22026 -0.209064,-0.62657 -0.921869,-1.77788 -0.241761,-0.26919 -0.45238,-0.57 -0.725283,-0.80756 -1.669921,-1.45364 -3.999509,-1.33145 -6.027146,-0.9424 -0.487329,0.13765 -0.982264,0.25076 -1.461988,0.41294 -2.302429,0.77835 -4.554537,2.29629 2.95607,-2.12571 0.510275,-0.30044 -1.025953,0.59989 -1.488492,0.96961 -1.20638,0.96432 -1.333785,1.34639 -2.181251,2.59024 -0.164965,0.47651 -0.379142,0.93875 -0.494894,1.42954 -0.604606,2.56358 0.22064,5.27544 1.064223,7.67563 0.253117,0.5038 0.469882,1.02757 0.759353,1.5114 1.58621,2.65122 4.116679,4.43639 6.940186,5.57551 1.486868,0.54099 2.379115,0.90719 3.929948,1.29703 3.307126,0.83134 6.742076,1.17847 10.142876,1.24619 4.0281,-0.0102 8.05783,-0.0328 12.08315,-0.1956 0,0 -6.02994,4.381 -6.02994,4.381 z"
       inkscape:connector-curvature="0" /><path
       style="opacity:0.98999999;fill:#4d4d4d;fill-opacity:1;stroke:#000000;stroke-width:1.21000004;stroke-miterlimit:4;stroke-dasharray:none;stroke-opacity:0.61194033;paint-order:normal"
       id="path20296"
       d="m 83.683719,736.61956 c 1.399374,-2.8368 2.898095,-5.60246 4.560207,-8.29558 1.485272,-2.3783 3.055281,-4.73294 5.163985,-6.61422 1.081684,-0.96503 2.655065,-2.06448 3.820556,-2.91254 6.009143,-4.08408 12.463223,-7.47526 19.137603,-10.32904 2.39431,-0.93534 4.86899,-1.96276 7.47661,-1.99263 0.24573,0.0454 0.50507,0.0437 0.7372,0.13624 1.48295,0.59105 2.37999,2.34919 2.99649,3.69497 0.3767,0.88583 0.59722,1.81863 0.80486,2.75401 0,0 -6.46419,3.45542 -6.46419,3.45542 v 0 c -0.15696,-0.89367 -0.32459,-1.7855 -0.67289,-2.62985 -0.66229,-1.42068 -1.56646,-3.04086 -3.32688,-3.06632 -2.43681,0.193 -4.75128,1.04774 -7.00229,1.95677 -2.557,1.10213 -1.44369,0.60035 -4.08432,1.83278 -0.76549,0.35726 -2.92135,1.64162 -2.29508,1.07471 1.01851,-0.92196 2.36166,-1.40669 3.50434,-2.16935 1.4437,-0.96357 -5.83041,3.5158 -4.41946,2.75372 -0.82288,0.58945 -2.98408,2.11062 -3.778152,2.78349 -2.131299,1.80598 -3.765171,4.08151 -5.206452,6.45294 -1.616743,2.55143 -3.124144,5.15942 -4.121022,8.02386 0,0 -6.831115,3.09062 -6.831115,3.09062 z"
       inkscape:connector-curvature="0" /><path
       style="opacity:0.98999999;fill:#4d4d4d;fill-opacity:1;stroke:#000000;stroke-width:1.21000004;stroke-miterlimit:4;stroke-dasharray:none;stroke-opacity:0.61194033;paint-order:normal"
       id="path20298"
       d="m 125.96697,725.38459 c -2.60452,-0.19447 -5.11202,-0.84633 -7.61449,-1.56102 -2.01564,-0.83547 -4.69168,-1.55591 -6.25902,-3.15875 -0.31775,-0.32494 -0.56783,-0.70978 -0.85174,-1.06468 -1.73584,-2.44417 -2.59783,-5.33193 -3.25382,-8.22048 -0.48404,-2.49646 -0.57284,-5.0496 -0.38426,-7.57959 0.59516,-3.69877 2.7541,-6.71846 5.03475,-9.57573 0.94273,-1.04937 1.85466,-2.18535 3.10435,-2.89368 5.47393,-3.10264 5.55447,-3.92843 9.90461,-4.48195 1.71494,-0.0902 3.46238,-0.32488 5.17923,-0.11224 1.01051,0.12516 1.58026,0.3224 2.55191,0.59358 1.98105,0.64051 3.76237,1.69249 4.9619,3.41377 0.422,0.62223 0.70406,1.31049 0.96948,2.0082 0,0 -6.45927,3.57715 -6.45927,3.57715 v 0 c -0.21886,-0.6494 -0.45445,-1.28805 -0.8423,-1.8611 -1.08575,-1.59025 -2.75829,-2.48477 -4.57165,-3.05159 -2.48469,-0.61996 -5.00782,-0.60396 -7.54118,-0.24931 -3.60237,0.68375 -4.44799,1.89979 2.5606,-2.44626 0.36542,-0.2266 -0.7721,0.38647 -1.12211,0.63622 -0.7448,0.53146 -1.60233,1.47599 -2.22142,2.11062 -2.27424,2.69764 -4.43695,5.57434 -5.09387,9.12793 -0.21091,2.46041 -0.0448,4.94561 0.30817,7.38819 0.53269,2.80652 1.34202,5.59977 3.09035,7.91222 0.26468,0.30933 0.50051,0.64588 0.79404,0.92798 1.53969,1.47969 4.05695,2.22941 5.99966,2.98161 2.54517,0.69076 5.12914,1.28064 7.78602,1.1979 0,0 -6.02994,4.38101 -6.02994,4.38101 z"
       inkscape:connector-curvature="0" /><path
       style="opacity:0.98999999;fill:#4d4d4d;fill-opacity:1;stroke:#000000;stroke-width:1.21000004;stroke-miterlimit:4;stroke-dasharray:none;stroke-opacity:0.61194033;paint-order:normal"
       id="path20300"
       d="m 143.58688,705.98472 c -2.47435,-0.55214 -4.83815,-1.43746 -7.18526,-2.37889 -3.02219,-1.19278 -5.87144,-2.80493 -8.57104,-4.60454 -1.40152,-1.04985 -2.92633,-2.09334 -3.78918,-3.66704 -0.43224,-0.78832 -0.60526,-1.45324 -0.87819,-2.29708 -0.36608,-1.41548 -0.49088,-2.88266 -0.55938,-4.33936 -0.0148,-0.31392 -0.0563,-0.6293 -0.0288,-0.94237 0.0318,-0.36289 0.13703,-0.71557 0.20555,-1.07336 0.80536,-1.59422 2.23628,-2.62129 3.75645,-3.49749 2.76385,-1.59303 5.52355,-3.19958 8.36716,-4.64544 1.57518,-0.80092 4.94678,-1.72981 6.55294,-2.21473 3.55723,-0.92901 7.17447,-1.61131 10.80363,-2.18868 1.97204,-0.31373 3.36655,-0.57695 5.3483,-0.48584 0.73117,0.0336 1.45121,0.1922 2.17682,0.2883 1.37489,0.48507 2.09466,0.59326 3.2235,1.53796 1.90724,1.59612 2.90306,4.03628 3.75373,6.29104 0.70524,2.57175 1.46038,5.47366 0.80047,8.14923 -0.13239,0.53676 -0.38526,1.0364 -0.57789,1.55461 -0.31406,0.47065 -0.59126,0.96812 -0.94218,1.41197 -0.58983,0.74602 -1.57545,1.70029 -2.39609,2.20147 -5.26721,3.21674 -5.71573,3.53508 -9.65736,5.26302 -1.30108,0.52273 -0.66488,0.28518 -1.90647,0.71831 0,0 5.75947,-4.49539 5.75947,-4.49539 v 0 c 1.17747,-0.43438 0.57141,-0.19905 1.81639,-0.71064 2.22981,-0.97468 6.69341,-3.35072 -2.62531,1.8436 -0.46276,0.25795 0.90448,-0.55716 1.31769,-0.88874 0.4212,-0.33799 0.81163,-0.71562 1.1771,-1.11321 0.3609,-0.39262 0.6644,-0.83436 0.99661,-1.25155 0.21291,-0.46325 0.48687,-0.90306 0.63873,-1.38976 0.79729,-2.55529 0.0185,-5.36903 -0.5791,-7.86535 -1.30661,-3.63985 -2.55326,-6.07338 -6.48162,-7.23829 -0.67923,-0.0848 -1.35379,-0.22585 -2.03771,-0.25449 -1.74174,-0.0729 -3.37358,0.16429 -5.09475,0.41008 -3.59064,0.51275 -7.16167,1.18796 -10.65117,2.18965 -1.19297,0.3907 -2.40104,0.73804 -3.57892,1.17211 -1.05575,0.38906 -3.47465,2.36224 -3.11699,1.29545 0.42312,-1.26204 2.258,-1.41017 3.39014,-2.11019 0.58514,-0.36179 -1.18641,0.6997 -1.74909,1.09551 -0.4163,0.29284 -0.80855,0.62079 -1.18216,0.96643 -0.26792,0.24785 -0.49161,0.53961 -0.73742,0.80941 -0.0897,0.29862 -0.22532,0.58715 -0.26923,0.89585 -0.0438,0.30772 0.003,0.62164 0.009,0.9324 0.0259,1.40883 0.103,2.82299 0.42972,4.19927 0.24483,0.83998 0.342,1.33866 0.76602,2.11776 0.8093,1.48703 2.24773,2.48691 3.57245,3.47101 2.65101,1.7849 5.44328,3.37908 8.44329,4.50531 2.4147,0.93492 4.87459,1.70174 7.43547,2.12394 0,0 -6.14545,4.20874 -6.14545,4.20874 z"
       inkscape:connector-curvature="0" /><path
       style="opacity:0.98999999;fill:#4d4d4d;fill-opacity:1;stroke:#000000;stroke-width:1.21000004;stroke-miterlimit:4;stroke-dasharray:none;stroke-opacity:0.61194033;paint-order:normal"
       id="path20302"
       d="m 186.12437,665.28566 c -2.46609,-0.093 -4.9345,-0.10278 -7.40201,-0.11982 -2.79269,-0.0354 -5.61547,0.074 -8.34722,0.70077 -1.90518,0.4371 -2.74053,0.76577 -4.59624,1.38461 1.28609,-1.01322 -6.04589,3.14873 -4.56577,2.30321 1.18696,-0.67805 2.3142,-1.48561 3.58214,-1.99643 0.81435,-0.32808 -1.47172,0.95772 -2.20443,1.44139 -2.83583,1.87194 -1.9052,1.24475 -4.67059,3.23298 -3.38025,2.44104 -6.79543,4.85141 -9.73542,7.82197 -1.18446,1.27448 -2.21067,2.86249 -2.22493,4.67223 -0.003,0.35449 0.0777,0.70474 0.11656,1.05711 0.13884,0.33812 0.22809,0.70116 0.41652,1.01437 1.24175,2.06407 4.1565,3.24047 6.27838,4.09566 2.60302,0.82741 5.32012,1.24787 8.02072,1.62138 0.77888,0.10825 1.56345,0.1545 2.34793,0.19613 0,0 -5.98835,4.286 -5.98835,4.286 v 0 c -0.77923,-0.0698 -1.55953,-0.13912 -2.32879,-0.28811 -2.67504,-0.48669 -5.36242,-0.98672 -7.93617,-1.88338 -2.3874,-1.01488 -5.24995,-2.18303 -6.69922,-4.48752 -0.22715,-0.36118 -0.34429,-0.78081 -0.51644,-1.17121 -0.073,-0.40229 -0.19478,-0.79873 -0.2189,-1.20687 -0.11502,-1.94634 0.85935,-3.7877 2.13646,-5.16888 0.84947,-0.86119 1.46711,-1.51966 2.39936,-2.3191 2.42403,-2.0787 5.09846,-3.85159 7.65615,-5.75497 6.12108,-4.49155 12.57676,-8.67264 19.5642,-11.67761 1.89806,-0.60147 2.72714,-0.91584 4.67689,-1.32794 2.8077,-0.59344 5.69143,-0.68642 8.55145,-0.69746 2.57747,-0.0175 5.15564,-0.0298 7.73184,-0.11982 0,0 -6.04412,4.39131 -6.04412,4.39131 z"
       inkscape:connector-curvature="0" /><path
       style="opacity:0.98999999;fill:#4d4d4d;fill-opacity:1;stroke:#000000;stroke-width:1.21000004;stroke-miterlimit:4;stroke-dasharray:none;stroke-opacity:0.61194033;paint-order:normal"
       id="path20304"
       d="m 191.73353,684.98879 c -2.62387,-0.10366 -5.18827,-0.69858 -7.75094,-1.22722 -4.63534,-0.84079 -9.07563,-2.43727 -13.35813,-4.3644 -2.17044,-1.11335 -4.45269,-2.13705 -6.18819,-3.90153 -0.76815,-0.78097 -0.89891,-1.05929 -1.47908,-1.93024 -0.28257,-0.61179 -0.63072,-1.23123 -0.69793,-1.92125 -0.25029,-2.56978 1.99678,-4.76541 3.50769,-6.52288 3.0044,-3.18622 6.56552,-5.80396 10.33845,-8.00975 8.24092,-4.81796 5.85438,-3.62332 11.18558,-6.08081 3.78975,-1.67841 7.82211,-2.4156 11.92679,-2.69034 3.10962,0.10177 4.49106,0.61159 6.43966,3.03964 1.14253,1.6197 1.55195,3.56922 1.7419,5.50733 0.016,0.25632 0.0319,0.51264 0.0479,0.76896 0,0 -6.538,3.36996 -6.538,3.36996 v 0 c -0.008,-0.25017 -0.0156,-0.50035 -0.0234,-0.75053 -0.12827,-1.8144 -0.38416,-3.64015 -1.44943,-5.17223 -1.80022,-2.19799 -3.16476,-2.48178 -5.95919,-2.53293 -3.94375,0.26868 -7.81614,1.01126 -11.44623,2.64406 -0.87513,0.41268 -3.0137,2.12427 -2.6254,1.23805 0.44349,-1.01217 3.72957,-2.36714 2.83553,-1.71762 -0.92462,0.67173 -1.9728,1.15642 -2.92761,1.78451 -2.60941,1.71656 -5.10875,3.63933 -7.23596,5.93607 -1.16819,1.32758 -3.49707,3.72831 -3.40705,5.71396 0.0242,0.53375 0.36846,1.25873 0.56432,1.73798 0.4849,0.81431 0.60263,1.10216 1.28016,1.82897 1.61352,1.73089 3.81016,2.75296 5.86918,3.83691 4.26414,1.91507 8.68716,3.48984 13.33026,4.18554 2.6659,0.46183 5.35745,0.98965 8.07746,0.82817 0,0 -6.05831,4.40162 -6.05831,4.40162 z"
       inkscape:connector-curvature="0" /><path
       style="opacity:0.98999999;fill:#4d4d4d;fill-opacity:1;stroke:#000000;stroke-width:1.21000004;stroke-miterlimit:4;stroke-dasharray:none;stroke-opacity:0.61194033;paint-order:normal"
       id="path20306"
       d="m 217.9975,668.82635 c -4.14887,-0.20296 -8.3056,-0.21885 -12.45865,-0.25231 -6.06069,0.0828 -12.10255,0.0331 -18.14277,-0.49176 -4.70564,-0.47283 -9.42739,-0.72356 -14.15423,-0.83116 -3.62809,-0.29299 -6.88401,0.32354 -10.20419,1.7471 9.20687,-5.35812 4.13226,-2.55682 2.39822,-0.81813 -0.94403,0.94658 -1.67391,2.03009 -2.37245,3.15992 -0.76524,1.56133 -1.6949,3.34783 -1.12279,5.10827 0.52123,0.74768 1.32984,0.86293 2.16477,1.02343 0,0 -6.04551,4.18247 -6.04551,4.18247 v 0 c -1.07314,-0.29463 -1.99383,-0.6295 -2.57884,-1.65037 -0.0852,-0.2544 -0.20716,-0.49932 -0.25552,-0.7632 -0.31768,-1.73328 0.58835,-3.45991 1.26647,-4.97987 2.96303,-5.33259 6.40723,-6.54183 12.14184,-9.66493 3.4279,-1.28962 6.62459,-1.7436 10.29367,-1.44591 4.6754,0.21499 9.34672,0.50826 14.00386,0.98317 5.98085,0.51349 11.96803,0.6753 17.97124,0.54397 4.38469,-0.0346 8.77212,-0.0579 13.15319,-0.25231 0,0 -6.05831,4.40162 -6.05831,4.40162 z"
       inkscape:connector-curvature="0" /><path
       style="opacity:0.98999999;fill:#4d4d4d;fill-opacity:1;stroke:#000000;stroke-width:1.21000004;stroke-miterlimit:4;stroke-dasharray:none;stroke-opacity:0.61194033;paint-order:normal"
       id="path20308"
       d="m 174.45429,695.58509 c -3.12829,-0.11706 -6.25917,-0.13669 -9.38914,-0.17271 -5.0217,0.18198 -9.99974,0.99147 -14.9559,1.77891 -3.06034,0.23214 -5.87815,1.30525 -8.56076,2.73029 9.89538,-5.62258 5.25819,-3.24412 3.33514,-1.6065 -0.83643,0.71229 -1.51196,1.51971 -2.16614,2.39496 -0.90241,1.28819 -1.2565,2.75885 -1.40617,4.29625 0.004,0.18899 0.008,0.37797 0.0113,0.56696 0,0 -6.57543,3.38907 -6.57543,3.38907 v 0 c -0.0154,-0.2211 -0.0307,-0.4422 -0.0461,-0.66329 0.14085,-1.65148 0.4371,-3.26747 1.34697,-4.69064 2.78704,-4.20457 6.60023,-5.61528 11.14094,-8.20367 2.69419,-1.29905 5.49929,-2.20318 8.50785,-2.40099 4.95378,-0.69076 9.92117,-1.42537 14.92279,-1.62695 3.28844,-0.0367 6.57762,-0.0591 9.86456,-0.1727 0,0 -6.02994,4.38101 -6.02994,4.38101 z"
       inkscape:connector-curvature="0" /><path
       style="opacity:0.98999999;fill:#ff6600;fill-opacity:1;stroke:#000000;stroke-width:1.21000004;stroke-miterlimit:4;stroke-dasharray:none;stroke-opacity:0.61194033;paint-order:normal"
       id="path20320"
       d="m 224.40352,658.70937 c -5.52329,-0.22466 -10.95687,-1.33433 -16.34441,-2.49538 -5.68426,-1.40771 -11.52713,-2.82607 -16.73702,-5.60281 -2.32785,-1.24068 -2.74497,-1.73873 -4.65559,-3.33297 -0.39378,-0.59834 -0.92476,-1.12625 -1.18135,-1.79501 -0.97406,-2.53875 0.93144,-5.08905 2.81585,-6.55784 0.56552,-0.44079 1.20501,-0.7774 1.80752,-1.1661 2.6796,-1.42404 5.30716,-2.95067 8.03881,-4.27213 0.66093,-0.31973 1.39859,-0.44968 2.10856,-0.63674 2.34563,-0.61803 4.74235,-0.94761 7.16072,-1.05032 0.41092,0.0523 0.8346,0.0426 1.23276,0.15693 2.25132,0.64622 2.40673,3.49545 2.62023,5.39288 0.18037,2.57756 -0.26518,5.21451 -1.65887,7.43235 -0.28923,0.46027 -0.65102,0.87074 -0.97654,1.30612 -4.30579,4.28409 -10.12879,6.69023 -15.75198,8.77005 -0.64921,0.23248 -1.29345,0.47932 -1.94762,0.69744 -1.3556,0.452 -2.74491,0.80039 -4.0942,1.2709 -2.03623,0.71004 -4.01433,1.6058 -5.98682,2.47215 1.26854,-0.77927 -4.94203,2.65569 -3.73367,1.94281 1.34477,-0.79335 2.66801,-1.63589 4.08401,-2.29373 0.6814,-0.31656 -1.25326,0.82954 -1.86656,1.26356 -0.87681,0.62052 -2.28242,1.70847 -3.15321,2.37517 -0.42659,0.33604 -0.85318,0.67208 -1.27977,1.00812 0,0 -6.58585,2.63467 -6.58585,2.63467 v 0 c 0.447,-0.34743 0.894,-0.69487 1.34101,-1.04231 1.65633,-1.25607 3.29276,-2.65648 5.07157,-3.73687 3.78912,-2.30139 7.56492,-4.58144 11.57374,-6.46439 1.99298,-0.8583 3.98767,-1.72122 6.0441,-2.42023 1.35312,-0.45993 2.74666,-0.79565 4.08455,-1.3033 0.65033,-0.22428 1.29335,-0.46923 1.94003,-0.70384 1.19174,-0.456 2.59947,-0.9765 3.77109,-1.49442 0.59957,-0.26505 2.32148,-1.20756 1.77703,-0.84246 -1.42291,0.95416 -2.93151,1.77487 -4.42343,2.61705 -0.4819,0.27204 0.9495,-0.57248 1.39145,-0.90551 0.42511,-0.32035 0.80223,-0.69987 1.20335,-1.0498 0.3382,-0.39519 0.71465,-0.76062 1.01461,-1.18556 1.44297,-2.04425 1.97135,-4.56877 1.83276,-7.02906 -0.15854,-1.28575 -0.19546,-3.33983 -1.39971,-4.20311 -0.56354,-0.40399 -1.2455,-0.36925 -1.89248,-0.43515 -2.32919,0.10944 -4.63371,0.42736 -6.88205,1.07043 -0.69269,0.19813 -2.5607,1.18666 -2.05324,0.67523 1.08912,-1.09763 2.59356,-1.68445 3.89034,-2.52668 -0.60172,0.34291 -1.23434,0.63653 -1.80517,1.02872 -1.66287,1.14248 -3.93483,3.40564 -3.27516,5.69681 0.17904,0.62185 0.63974,1.12505 0.95961,1.68758 0.59597,0.55361 1.14956,1.15666 1.78789,1.66083 5.39437,4.2606 12.40824,5.77606 18.94032,7.30051 5.66584,1.04223 11.42341,2.02989 17.20854,1.7147 0,0 -6.01575,4.37071 -6.01575,4.37071 z"
       inkscape:connector-curvature="0" /><path
       style="opacity:0.98999999;fill:#ff6600;fill-opacity:1;stroke:#000000;stroke-width:1.21000004;stroke-miterlimit:4;stroke-dasharray:none;stroke-opacity:0.61194033;paint-order:normal"
       id="path20322"
       d="m 142.21775,683.12848 c -0.96387,1.91608 -1.25283,4.04025 -0.20991,6.0046 0.30696,0.57817 0.73953,1.08033 1.10929,1.6205 3.23721,3.6275 7.7422,5.4959 12.27163,6.94653 2.23228,0.69445 4.46433,1.02857 6.70693,0.19291 0.53016,-0.19756 2.02221,-1.01178 1.53536,-0.72356 -1.47228,0.87159 -2.99731,1.65082 -4.49596,2.47623 1.94468,-1.39936 3.78602,-3.26652 4.28794,-5.70777 0.0718,-0.34914 0.0615,-0.71022 0.0922,-1.06533 -0.24967,-2.2356 -2.03074,-3.53809 -3.86263,-4.54705 -2.23028,-0.98755 -4.54621,-1.68365 -6.94339,-2.11475 0,0 5.98119,-4.16269 5.98119,-4.16269 v 0 c 2.40877,0.55993 4.76716,1.31368 7.02519,2.3299 2.0526,1.17372 3.92095,2.77333 4.273,5.24578 -0.0159,0.40907 0.0176,0.82306 -0.0476,1.22721 -0.41862,2.59355 -2.24588,4.69157 -4.2451,6.24348 -2.63767,1.54574 -7.0473,5.08173 -10.89976,5.41466 -1.78319,0.1541 -3.48778,-0.36483 -5.15719,-0.91457 -4.5803,-1.6709 -9.17774,-3.62348 -12.53516,-7.29443 -0.42011,-0.5749 -0.90414,-1.10817 -1.26035,-1.72472 -1.25971,-2.18036 -1.10063,-4.08303 -0.42106,-6.37248 0,0 6.79539,-3.07445 6.79539,-3.07445 z"
       inkscape:connector-curvature="0" /><path
       style="opacity:0.98999999;fill:#ff6600;fill-opacity:1;stroke:#000000;stroke-width:1.21000004;stroke-miterlimit:4;stroke-dasharray:none;stroke-opacity:0.61194033;paint-order:normal"
       id="path20324"
       d="m 121.56767,701.72282 c -0.80221,1.68336 -1.44972,3.4331 -2.19339,5.14292 -1.54276,3.72324 -3.93406,6.99454 -6.32661,10.20559 -2.2489,2.91376 -4.53711,5.81258 -7.24771,8.31219 -3.59053,2.45935 -7.433134,5.19809 -11.71163,6.29391 -1.142456,0.29261 -1.687757,0.33164 -2.85296,0.48887 -3.957706,0.27892 -5.495338,-1.10841 -7.945814,-3.9322 -1.987531,-2.61938 -2.850067,-5.68788 -3.213758,-8.90235 -0.149027,-2.2863 0.296662,-4.25461 1.89659,-5.92673 2.981362,-2.2471 6.271427,-4.89357 10.110861,-4.4639 1.913658,0.4456 2.815842,2.25083 3.521282,3.91479 0.764818,1.88613 1.038291,3.88947 1.169317,5.90443 0.08978,1.4502 0.07699,2.90308 0.07822,4.35513 1.94e-4,0.20552 3.89e-4,0.41105 5.84e-4,0.61657 0,0 -6.592488,3.35388 -6.592488,3.35388 v 0 c 0.0028,-0.20696 0.0055,-0.41392 0.0083,-0.62088 0.01851,-1.44849 0.0358,-2.89767 0.0042,-4.34604 -0.09151,-1.93983 -0.274329,-3.88331 -0.984898,-5.71104 -0.646116,-1.44651 -1.451895,-3.00302 -3.209134,-3.15227 -0.625913,0.008 -1.223309,0.0479 -1.829564,0.22265 -0.189444,0.0546 -0.725165,0.30194 -0.556969,0.19908 4.628638,-2.83086 7.850951,-4.42183 5.084799,-3.04054 -1.891683,1.39271 -2.34982,3.09337 -2.372829,5.39194 0.255804,3.0799 1.061536,6.0466 3.009438,8.51508 2.349405,2.75131 3.796232,3.74603 7.550567,3.32724 1.421967,-0.2395 2.786812,-0.50943 4.131256,-1.053 1.96045,-0.79264 5.4985,-2.96567 -3.282664,2.11853 -0.483976,0.28022 0.951681,-0.58764 1.427521,-0.88146 2.825423,-2.41406 5.109563,-5.36074 7.439423,-8.24116 2.35983,-3.09974 4.72441,-6.28199 6.15043,-9.93956 0.69232,-1.65745 1.2866,-3.34474 1.94704,-5.01109 0,0 6.79066,-3.14058 6.79066,-3.14058 z"
       inkscape:connector-curvature="0" /><path
       style="opacity:0.98999999;fill:#917c6f;fill-opacity:1;stroke:#000000;stroke-width:1.21000004;stroke-miterlimit:4;stroke-dasharray:none;stroke-opacity:0.61194033;paint-order:normal"
       id="path20326"
       d="m 259.33899,637.09884 c -2.9836,0.0162 -5.97742,0.21937 -8.96083,0.13352 -0.89201,-0.0257 -1.78088,-0.11746 -2.67132,-0.1762 -4.48359,-0.38106 -8.56798,-1.68531 -12.49423,-3.83163 -2.37966,-1.36614 -3.41707,-3.33486 -4.45558,-5.7491 -0.66366,-1.92149 -0.99298,-3.94664 -0.99977,-5.97637 0.0913,-1.7648 0.75939,-3.30626 2.0166,-4.53365 5.5577,-3.49323 5.8615,-4.41734 10.81877,-4.53908 1.8435,-0.0547 2.89592,-0.18496 4.22581,1.25983 0.88159,1.38038 0.95069,3.01665 1.01768,4.6047 0.0373,1.23084 -0.26927,2.40144 -0.66438,3.55266 0,0 -6.6441,3.08521 -6.6441,3.08521 v 0 c 0.4466,-1.05172 0.79549,-2.12047 0.78306,-3.28049 -0.0512,-1.39523 -0.0425,-2.88332 -0.80048,-4.10865 -1.05476,-1.00568 -2.46178,-0.83413 -3.82758,-0.78092 -0.80326,0.0487 -1.61873,0.0831 -2.40446,0.27592 -2.37276,0.58218 -6.39597,3.90116 4.31853,-2.81129 -1.46524,0.96365 -2.06541,2.25016 -2.31114,3.96504 -0.0834,1.9394 0.19279,3.89189 0.80979,5.73444 0.92522,2.27635 1.8839,4.10671 4.07173,5.42636 3.70976,2.16146 7.7672,3.41647 12.06308,3.74018 4.02376,0.17626 8.07837,0.0781 12.07499,-0.45586 0,0 -5.96617,4.46538 -5.96617,4.46538 z"
       inkscape:connector-curvature="0" /><path
       style="opacity:0.98999999;fill:#917c6f;fill-opacity:1;stroke:#000000;stroke-width:1.21000004;stroke-miterlimit:4;stroke-dasharray:none;stroke-opacity:0.61194033;paint-order:normal"
       id="path20328"
       d="m 247.2386,651.6486 c -2.91183,-0.12716 -5.82799,-0.1301 -8.74213,-0.13528 -2.8648,0.10161 -5.76788,-0.20083 -8.59089,0.37973 -0.9389,0.29585 -1.33652,0.39068 -2.24939,0.80824 -2.1934,1.0033 -9.35078,5.25549 0.94788,-0.61523 -1.90058,1.20187 -3.83039,2.42202 -5.11057,4.30705 -1.04312,2.14129 -0.70462,3.00039 1.07345,4.4647 1.8381,1.16313 3.91135,1.93914 5.982,2.58481 1.0013,0.15064 0.51568,0.13463 1.45592,0.0708 0,0 -5.9736,4.31862 -5.9736,4.31862 v 0 c -1.00634,-0.1089 -0.49552,-0.0165 -1.53006,-0.2901 -2.10408,-0.76866 -4.23334,-1.57414 -6.09759,-2.83552 -1.90333,-1.64272 -2.57955,-2.9093 -1.59301,-5.35628 0.15488,-0.2829 0.285,-0.58084 0.46465,-0.8487 1.13501,-1.69223 3.05411,-2.68843 4.66821,-3.84049 2.46229,-1.43723 4.92144,-2.87984 7.38685,-4.3117 2.0046,-1.16423 4.05179,-2.34821 6.35126,-2.80713 2.81066,-0.40762 5.65598,-0.0774 8.4866,-0.14955 3.03834,-0.005 6.07824,-0.0133 9.11454,-0.13529 0,0 -6.04412,4.39131 -6.04412,4.39131 z"
       inkscape:connector-curvature="0" /><path
       style="opacity:0.98999999;fill:#917c6f;fill-opacity:1;stroke:#000000;stroke-width:1.21000004;stroke-miterlimit:4;stroke-dasharray:none;stroke-opacity:0.61194033;paint-order:normal"
       id="path20330"
       d="m 184.50249,683.4581 c -2.72051,-0.17971 -5.43961,-0.36199 -8.16502,-0.45674 -1.8826,0.0112 -3.78219,-0.1965 -5.65793,0.0116 -0.86961,0.14358 -1.67542,0.53596 -2.44514,0.95176 -0.34989,0.189 -1.37626,0.79744 -1.02838,0.60477 5.26352,-2.91512 6.51627,-4.02121 3.83128,-1.87177 -2.19942,2.01444 -3.61277,4.35757 -4.48416,7.18385 -0.59528,2.79669 0.0982,4.09271 1.98887,6.0655 1.77832,1.65728 4.07618,2.37755 6.32627,3.12743 1.39011,0.65668 2.81631,0.77401 4.29232,0.41533 2.55355,-1.17897 1.31084,-0.62342 -5.32746,3.05759 -0.20167,0.11183 0.37398,-0.27848 0.5179,-0.45865 0,0 6.77358,-3.14693 6.77358,-3.14693 v 0 c -0.58853,3.09447 -4.97163,4.25819 -7.85885,4.99028 -1.55231,0.18051 -3.01497,-0.10479 -4.43482,-0.77393 -2.30707,-0.84385 -4.62666,-1.74347 -6.45137,-3.45343 -2.03477,-2.1297 -2.86916,-3.71971 -2.345,-6.73956 0.27941,-0.94045 0.46107,-1.6586 0.86625,-2.56474 0.84047,-1.87966 2.12662,-3.51827 3.51221,-5.02229 3.17839,-2.85431 0.8826,-0.92096 8.41203,-5.34661 1.1651,-0.68483 2.4134,-1.27131 3.77554,-1.38663 1.85286,-0.0674 3.70642,0.0858 5.55688,0.16713 2.78264,0.15032 5.57403,0.37934 8.36076,0.27529 0,0 -6.01576,4.3707 -6.01576,4.3707 z"
       inkscape:connector-curvature="0" /><path
       style="opacity:0.98999999;fill:#917c6f;fill-opacity:1;stroke:#000000;stroke-width:1.21000004;stroke-miterlimit:4;stroke-dasharray:none;stroke-opacity:0.61194033;paint-order:normal"
       id="path20332"
       d="m 257.8452,617.80849 c -1.74117,-0.0486 -3.54065,-0.39638 -4.96857,-1.45644 -0.32343,-0.2401 -0.59659,-0.54138 -0.89488,-0.81207 -1.39019,-1.76544 -1.9818,-3.93083 -1.95458,-6.15016 0.15721,-1.8614 1.00512,-3.34296 2.44821,-4.48357 3.56469,-2.38323 6.11306,-4.35337 10.04946,-4.60682 0.57809,0.0382 1.11904,0.16662 1.66531,0.34811 0,0 -6.11631,4.20109 -6.11631,4.20109 v 0 c -0.49873,-0.10116 -0.99511,-0.19415 -1.50766,-0.13749 -3.28031,0.38543 -7.10596,3.21363 2.75323,-2.49747 -1.57454,0.94865 -2.46417,2.0293 -2.78172,3.89306 -0.15092,2.00397 0.33766,4.01557 1.60083,5.61055 0.26679,0.23174 0.50893,0.49537 0.80038,0.69522 1.44698,0.99223 3.25708,1.09384 4.95042,1.00468 0,0 -6.04412,4.39131 -6.04412,4.39131 z"
       inkscape:connector-curvature="0" /><path
       style="opacity:0.98999999;fill:#ffd42a;fill-opacity:1;stroke:#000000;stroke-width:1.21000004;stroke-miterlimit:4;stroke-dasharray:none;stroke-opacity:0.61194033;paint-order:normal"
       id="path20334"
       d="m 273.20645,620.74063 c 0.50114,2.10842 1.05774,4.19179 1.43301,6.32982 0.42454,2.0474 0.64196,4.12659 0.90866,6.19733 0.17567,1.15879 0.0804,0.57205 0.28676,1.76005 0,0 -6.44748,3.43723 -6.44748,3.43723 v 0 c -0.24367,-1.21066 -0.14325,-0.61217 -0.30509,-1.79482 -0.28138,-2.06938 -0.37348,-4.16582 -0.83258,-6.21111 -0.32449,-2.09483 -0.8372,-4.13058 -1.58241,-6.11712 0,0 6.53913,-3.60138 6.53913,-3.60138 z"
       inkscape:connector-curvature="0" /><path
       style="opacity:0.98999999;fill:#ffd42a;fill-opacity:1;stroke:#000000;stroke-width:1.21000004;stroke-miterlimit:4;stroke-dasharray:none;stroke-opacity:0.61194033;paint-order:normal"
       id="path20336"
       d="m 147.73857,657.20444 c -2.15233,-0.0296 -4.44788,0.76721 -6.36371,1.70586 -0.36172,0.21443 -1.45382,0.84554 -1.08515,0.6433 8.90854,-4.8869 5.48947,-3.43973 3.41018,-1.37547 -0.65901,0.65424 -0.77502,0.8623 -1.32927,1.59757 -0.28668,0.46476 -0.7447,1.01716 -0.68468,1.62934 0.20017,2.04176 3.51074,3.51716 4.99658,4.3012 3.42739,1.50333 7.01898,2.57191 10.71673,3.1314 2.8719,0.31944 5.76885,0.28905 8.65421,0.27563 2.30456,0.0648 4.58977,-0.11265 6.87914,-0.33703 1.6204,-0.15192 3.24431,-0.24073 4.87136,-0.26161 2.20733,-0.0847 3.26043,0.49415 4.54407,2.27069 0.99848,1.85013 1.34377,3.47216 1.01732,5.54841 -0.12197,0.28696 -0.20456,0.59406 -0.36589,0.86087 -0.31763,0.52528 -0.90591,1.11646 -1.43318,1.42983 -5.15323,3.06267 -5.30241,3.2677 -8.91111,4.79617 -1.53199,0.67798 -3.15733,1.01776 -4.75663,1.47322 -0.2186,0.0571 -0.4372,0.11429 -0.6558,0.17144 0,0 5.85952,-4.48912 5.85952,-4.48912 v 0 c 0.21423,-0.0553 0.42845,-0.11065 0.64268,-0.16597 1.58464,-0.3892 3.13276,-0.8774 4.63888,-1.51253 2.48688,-1.05002 5.90913,-3.22169 -3.59695,2.39366 -0.79454,0.46934 2.71186,-1.565 1.98633,-1.76856 0.49409,-1.8387 0.16118,-3.33924 -0.70889,-5.01409 -1.27092,-1.67221 -2.20061,-1.70736 -4.20175,-1.65798 -1.60062,0.0476 -3.20136,0.11598 -4.79572,0.27137 -2.25956,0.2007 -4.51641,0.24493 -6.78489,0.18511 -2.92903,-0.009 -5.87904,0.0694 -8.78682,-0.33632 -3.64851,-0.74449 -7.16333,-2.00266 -10.57453,-3.48627 -1.90082,-0.97306 -6.53288,-3.05255 -5.70992,-5.94967 0.0906,-0.31889 0.32594,-0.57736 0.48891,-0.86604 0.47241,-0.69693 0.72164,-1.12097 1.30016,-1.74359 2.73399,-2.94244 6.52186,-4.59727 10.01198,-6.48685 2.14749,-0.88763 4.43047,-1.58132 6.77097,-1.62528 0,0 -6.04413,4.39131 -6.04413,4.39131 z"
       inkscape:connector-curvature="0" /><path
       style="opacity:0.98999999;fill:#ffd42a;fill-opacity:1;stroke:#000000;stroke-width:1.21000004;stroke-miterlimit:4;stroke-dasharray:none;stroke-opacity:0.61194033;paint-order:normal"
       id="path20338"
       d="m 129.52599,713.65424 c -0.37485,-1.9407 0.82088,-3.68023 2.12057,-5.00102 2.08209,-1.39338 7.15427,-5.69536 10.38378,-4.25906 0.25905,0.11522 0.46692,0.32174 0.70038,0.48261 1.34117,1.53035 1.38758,3.66058 1.52168,5.59477 0.004,2.61967 -1.04976,4.29946 -2.83449,6.10236 -1.78764,1.62858 -3.69375,3.10475 -5.70449,4.44467 -4.53199,2.76328 -9.13818,5.5156 -14.06681,7.52743 -2.64074,0.92168 -5.35274,1.6325 -8.05318,2.35977 -3.48271,0.94173 -6.93157,2.00151 -10.30974,3.26965 -3.24922,1.27891 -6.534809,2.46619 -9.671749,4.00678 -0.12072,0.0589 -1.984742,0.96744 -2.166056,1.0608 -0.303664,0.15637 -1.196604,0.65912 -0.901068,0.48789 9.926253,-5.7512 6.171295,-3.63022 4.059125,-2.22059 -1.368634,0.91077 -2.67707,1.89895 -3.570895,3.29474 -0.640092,1.29741 -0.773239,2.47965 0.407965,3.45515 0.646745,0.37677 1.371966,0.48371 2.087423,0.22414 0.1752,-0.0636 0.660007,-0.34635 0.497849,-0.25449 -1.97627,1.11963 -3.960397,2.22533 -5.940595,3.33799 0,0 6.918351,-2.69205 6.918351,-2.69205 v 0 c -2.704404,1.54698 -6.50381,5.65745 -9.864466,3.27439 -1.242171,-1.27703 -1.447523,-2.67547 -0.829304,-4.34953 0.863161,-1.674 1.941758,-2.54695 3.467039,-3.61557 3.623616,-2.46254 7.445787,-4.63864 11.430441,-6.46056 3.14235,-1.44164 6.3918,-2.62669 9.61289,-3.87795 3.4425,-1.23926 6.93976,-2.31533 10.46065,-3.30932 2.67828,-0.74003 5.38593,-1.41745 7.97991,-2.42095 1.38505,-0.59502 2.73395,-1.23777 4.07653,-1.92375 0.45909,-0.23458 1.8122,-0.98193 1.37337,-0.71133 -1.21088,0.74671 -7.43832,4.40089 -3.68726,2.14905 2.00876,-1.29647 3.89285,-2.73831 5.70042,-4.30429 1.76327,-1.56876 2.99636,-3.03767 3.05301,-5.50808 -0.0763,-1.66787 -0.0452,-3.64058 -1.23251,-4.94299 -0.69007,-0.345 -1.29193,-0.44574 -2.07297,-0.31382 -0.27681,0.0468 -1.0478,0.37619 -0.81183,0.22411 3.746,-2.41433 7.73737,-4.35113 4.76577,-2.89091 -1.22179,0.93119 -2.50476,2.37679 -2.43344,4.01213 0,0 -6.4663,3.74783 -6.4663,3.74783 z"
       inkscape:connector-curvature="0" /><path
       style="opacity:0.98999999;fill:#55ddff;fill-opacity:1;stroke:#000000;stroke-width:1.21000004;stroke-miterlimit:4;stroke-dasharray:none;stroke-opacity:0.61194033;paint-order:normal"
       id="path20340"
       d="m 122.59805,675.42342 c -0.81524,1.51509 -2.01625,2.76778 -3.17872,4.01762 -1.6938,1.71934 -3.308,3.50642 -4.75977,5.43531 -0.91298,1.15391 -1.64535,2.39256 -2.0021,3.82229 -0.2531,1.70582 1.08162,2.58239 2.33006,3.46011 1.74856,1.30792 2.7941,1.26188 4.87887,1.11659 2.66009,-0.18941 5.19166,-1.01547 7.76334,-1.65001 2.11753,-0.55845 4.21023,-1.21609 6.36279,-1.62988 1.62649,-0.16373 2.46924,0.27299 3.21845,1.69558 0.75065,1.79263 -0.0904,3.06383 -1.40963,4.25623 -2.8992,1.89675 -2.40835,1.60274 -8.00389,4.56303 -0.32384,0.17133 -0.70217,0.21021 -1.04837,0.33008 -1.16131,0.4021 -2.30643,0.86403 -3.46072,1.28644 -2.83797,1.16445 -5.72754,2.11446 -8.72274,2.7787 -2.74028,0.44838 -5.52764,0.76426 -8.30687,0.65129 -2.03988,-0.1799 -4.00976,-0.71293 -5.96429,-1.29246 -1.618846,-0.58604 -2.808824,-1.61546 -3.702878,-3.06182 -0.607686,-1.14915 -0.808068,-2.42141 -0.210794,-3.60341 2.256541,-1.21015 4.418892,-2.61533 6.769622,-3.63046 0.20595,-0.0889 0.31551,0.32725 0.42034,0.52558 0.66958,1.26688 0.49138,2.94048 0.43631,4.30358 -0.38031,3.22092 -1.82009,6.11452 -3.82763,8.61587 -1.724158,2.03291 -3.859779,3.56833 -6.129502,4.9253 -3.001713,1.77268 -3.678976,2.17864 -8.245793,4.75113 -0.288693,0.16262 -0.599155,0.28318 -0.896972,0.42842 -0.261706,0.12762 -1.033491,0.53608 -0.781535,0.39014 6.224133,-3.60505 7.450422,-4.57385 5.325691,-2.94613 -0.211267,0.2347 -0.38642,0.33937 -0.167846,0.5852 0,0 -6.434113,3.79288 -6.434113,3.79288 v 0 c -0.348268,-0.53355 -0.568885,-0.92784 -0.255251,-1.55395 0.129768,-0.15097 0.219625,-0.34879 0.389304,-0.45291 2.257564,-1.38525 4.568255,-2.68219 6.866313,-3.99918 0.51637,-0.29592 2.108851,-1.10191 1.597592,-0.79724 -1.724094,1.02743 -3.4685,2.02038 -5.204244,3.028 -0.369067,0.21424 0.736136,-0.43192 1.104204,-0.64788 0.375525,-0.21645 1.992366,-1.14034 2.352685,-1.38017 1.426342,-0.94939 2.675659,-2.14432 3.897287,-3.33543 2.213607,-2.44872 3.489085,-4.8636 3.979325,-8.16192 0.04565,-1.01869 0.108978,-1.37038 -0.02127,-2.36164 -0.03687,-0.2806 -0.103057,-0.55725 -0.177869,-0.83019 -0.04347,-0.15859 -0.09108,-0.32003 -0.175996,-0.46085 -0.02033,-0.0337 -0.149504,-0.003 -0.11581,-0.0231 2.045417,-1.23525 4.11802,-2.42491 6.17703,-3.63736 -1.11246,0.55045 -0.69315,1.86733 -0.28958,2.7735 0.77932,1.31804 1.90739,2.17167 3.37863,2.63145 1.87996,0.58993 3.79886,1.07247 5.77462,1.18596 2.71766,0.0339 5.44042,-0.18149 8.10609,-0.72771 2.99396,-0.70872 5.86578,-1.75287 8.72027,-2.89397 1.17282,-0.43992 2.34978,-0.87131 3.51931,-1.31982 0.34051,-0.13058 1.32499,-0.59875 1.01689,-0.40363 -3.60288,2.28165 -7.47606,4.22244 -4.46557,2.69642 1.15767,-0.8181 2.34916,-1.73313 1.7498,-3.29529 -0.60206,-1.15015 -1.41132,-1.14235 -2.62034,-0.95711 -2.09524,0.43432 -4.14667,1.05348 -6.22319,1.56698 -2.61452,0.65993 -5.20681,1.42807 -7.9162,1.59488 -2.22391,0.098 -3.41619,-0.11752 -5.20759,-1.5009 -1.39392,-1.06469 -2.90254,-2.22218 -2.8036,-4.15312 0.25125,-1.57744 0.9852,-2.93605 1.99216,-4.17348 1.44874,-1.96199 3.03462,-3.80901 4.77125,-5.52318 1.07421,-1.16986 2.20452,-2.32856 3.00133,-3.71378 0,0 6.83111,-3.09061 6.83111,-3.09061 z"
       inkscape:connector-curvature="0" /><path
       style="opacity:0.98999999;fill:#55ddff;fill-opacity:1;stroke:#000000;stroke-width:1.21000004;stroke-miterlimit:4;stroke-dasharray:none;stroke-opacity:0.61194033;paint-order:normal"
       id="path20342"
       d="m 222.1112,623.373 c -0.44014,1.75221 -0.91034,3.49674 -1.34721,5.25035 -0.18191,1.30046 -0.76724,2.69414 -0.53512,4.02871 0.0399,0.22918 0.13874,0.44407 0.20811,0.6661 0.64347,1.34526 1.97354,1.59586 3.3245,1.78599 1.63994,0.1158 2.40683,-0.13999 2.9926,1.64978 0.20721,0.96608 -0.004,1.88201 -0.33429,2.79015 -0.23939,0.65814 -0.17419,0.31418 -0.23389,0.72871 1.4259,10e-4 2.86723,0.0569 4.29972,0.0567 1.47354,-0.0147 2.94687,-0.0422 4.42015,-0.0726 0,0 -5.90323,4.29829 -5.90323,4.29829 v 0 c -1.44949,-3.4e-4 -2.89892,0.007 -4.34839,0.0141 -1.06192,0.007 -3.98736,0.28747 -4.82162,-0.4396 -0.13412,-0.11689 -0.1964,-0.29669 -0.2946,-0.44503 -0.0167,-0.1705 -0.0796,-0.34271 -0.0502,-0.51148 0.0337,-0.1938 0.46336,-0.97114 0.52311,-1.12586 0.21521,-0.55723 0.30774,-1.15066 0.23189,-1.74306 -0.0288,-0.1313 -0.0274,-0.27311 -0.0863,-0.3939 -0.35999,-0.73759 -1.83405,-0.33712 -2.43708,-0.57833 -1.58451,-0.34375 -3.00707,-0.88839 -3.71744,-2.46649 -0.0982,-0.27428 -0.228,-0.53924 -0.29469,-0.82284 -0.33152,-1.40992 0.26378,-2.90141 0.49706,-4.27646 0.42504,-1.70314 0.89362,-3.39108 1.17044,-5.12667 0,0 6.73653,-3.26658 6.73653,-3.26658 z"
       inkscape:connector-curvature="0" /><path
       style="opacity:0.98999999;fill:#87aade;fill-opacity:1;stroke:#000000;stroke-width:1.21000004;stroke-miterlimit:4;stroke-dasharray:none;stroke-opacity:0.61194033;paint-order:normal"
       id="path20344"
       d="m 235.72452,610.82315 c -0.17357,0.14623 -0.33995,0.30145 -0.52072,0.43868 -0.90176,0.68454 -0.87293,0.53052 -1.79878,1.35921 -1.23371,1.10426 -2.23262,2.38959 -3.22897,3.70217 -1.88025,2.68038 -3.34356,5.60561 -4.3095,8.72956 -0.35523,1.80615 -1.16787,4.36311 -0.24261,6.12305 0.16606,0.31585 0.43174,0.56829 0.6476,0.85244 2.03307,1.9824 4.73813,2.99332 7.44051,3.68496 1.93463,0.44133 3.91772,0.48577 5.89148,0.51017 1.41455,-0.0245 2.95029,0.0756 4.10403,1.00939 0.23347,0.18897 0.41367,0.4356 0.6205,0.6534 1.35797,2.0596 1.29805,4.65611 1.36877,7.03508 0.0311,3.05256 -1.4531,5.70874 -3.63271,7.77615 -0.53736,0.50969 -1.13514,0.95164 -1.70271,1.42746 -5.05032,3.58059 -10.34433,6.98199 -16.1022,9.31036 -2.82545,1.14256 -4.2005,1.48203 -7.15385,2.37504 -6.00918,1.81216 -12.23143,2.64002 -18.42446,3.52107 -1.61835,0.23024 -9.38194,1.36146 -10.97105,1.59273 -8.41866,1.1803 -16.87668,2.04856 -25.35782,2.61581 -2.61804,-0.0438 -5.67645,0.85487 -8.1475,-0.43577 -0.3441,-0.17972 -0.63548,-0.44608 -0.95322,-0.66912 -1.53375,-1.58964 -2.38993,-3.83772 -2.39351,-6.05425 -8e-4,-0.4962 0.0815,-0.98905 0.12227,-1.48357 0.63777,-2.97479 2.58891,-5.22197 5.23994,-6.65024 2.72463,-1.46792 5.49844,-2.84266 8.24766,-4.26399 0.95374,-0.20443 1.89774,-0.46128 2.86123,-0.61328 2.72452,-0.42984 5.59824,-0.55629 8.33877,-0.68251 1.89353,-0.0872 8.81032,-0.32272 10.65469,-0.33448 1.72519,-0.011 3.45008,0.0498 5.17513,0.0747 3.98103,0.17874 7.98711,0.49716 11.89118,1.34249 1.64115,0.35535 2.98741,0.69485 4.39421,1.61014 0.485,0.31555 0.87401,0.75848 1.31101,1.13772 0.28918,0.47906 0.65634,0.91898 0.86752,1.43717 1.50059,3.68215 -1.3759,8.71991 -3.0627,11.83379 -2.27272,3.68901 -5.0611,7.05878 -8.41121,9.82713 -1.27025,1.04966 -2.60361,2.03078 -4.00384,2.89951 -7.46927,4.63411 -7.74076,4.63057 -13.90738,7.60095 -6.83091,2.91171 -14.02374,4.85697 -21.2994,6.27173 -2.47278,0.48167 -4.94571,0.99394 -7.4609,1.18961 0,0 5.93516,-4.38133 5.93516,-4.38133 v 0 c 2.35528,-0.17459 4.68746,-0.55501 7.0144,-0.95007 7.06853,-1.21158 14.03549,-3.10049 20.62165,-5.96977 1.46403,-0.7199 2.90145,-1.49667 4.39211,-2.15969 0.37027,-0.1647 -1.34887,0.89814 -1.02085,0.66019 1.30746,-0.94848 2.7046,-1.77642 3.96023,-2.79251 3.26895,-2.64533 5.98959,-5.88862 8.1451,-9.48615 1.46956,-2.76898 4.20455,-7.6986 2.93602,-10.97487 -0.176,-0.45455 -0.49306,-0.84099 -0.73959,-1.26148 -0.37688,-0.34802 -0.71005,-0.75036 -1.13064,-1.04406 -1.23245,-0.86061 -2.53516,-1.27283 -3.98535,-1.65 -3.71423,-0.96601 -7.55743,-1.34531 -11.37676,-1.57154 -1.69703,-0.0338 -3.39375,-0.11262 -5.09107,-0.1015 -2.56406,0.0168 -8.21932,0.27688 -10.78852,0.46878 -2.78293,0.20787 -5.93045,0.5094 -8.69509,1.0786 -0.988,0.20342 -1.94979,0.51811 -2.92468,0.77717 1.22195,-0.8297 2.4983,-1.58443 3.66584,-2.48909 0.52519,-0.40694 -1.1795,0.61786 -1.73033,0.98937 -1.78014,1.20064 -3.04071,2.92431 -3.61091,4.99057 -0.0546,0.45464 -0.14928,0.90625 -0.1639,1.36393 -0.0638,1.99809 0.69156,4.06665 2.13912,5.44362 0.28036,0.17491 0.54108,0.38618 0.84108,0.52475 2.33204,1.07715 5.15832,0.3316 7.60396,0.48615 8.2522,-0.301 16.48778,-0.99418 24.66323,-2.17443 7.20141,-1.05731 3.86212,-0.55639 11.05387,-1.65484 6.2804,-0.95925 12.58272,-1.90541 18.66068,-3.82386 2.96185,-0.94913 4.39907,-1.32916 7.22367,-2.53766 1.05889,-0.45304 2.86963,-2.6049 3.12169,-1.48108 0.25862,1.15309 -1.97822,1.30838 -3.04766,1.81116 -1.6063,0.75517 5.77444,-3.33777 4.43155,-2.9522 2.3446,-1.84653 4.73121,-3.93066 5.32603,-7.03944 0.0935,-0.48856 0.0681,-0.99251 0.10218,-1.48876 -0.10702,-2.16927 -0.0442,-4.58466 -1.28002,-6.46335 -1.35286,-1.25332 -2.63713,-1.21488 -4.39938,-1.20423 -1.98439,-0.0419 -3.96914,-0.22001 -5.89303,-0.73608 -2.79596,-0.84558 -5.59713,-2.00547 -7.72389,-4.06605 -0.25781,-0.34965 -0.57157,-0.66428 -0.77344,-1.04895 -1.01084,-1.92619 -0.25935,-4.56647 0.12099,-6.5583 0.96113,-3.20373 2.43086,-6.19365 4.28347,-8.98244 1.44576,-2.02525 2.94183,-4.12754 5.1109,-5.43426 0,0 6.93072,-2.87079 6.93072,-2.87079 z"
       inkscape:connector-curvature="0" /><path
       style="opacity:0.98999999;fill:#bc5fd3;fill-opacity:1;stroke:#000000;stroke-width:1.21000004;stroke-miterlimit:4;stroke-dasharray:none;stroke-opacity:0.61194033;paint-order:normal"
       id="path20346"
       d="m 252.61017,599.94067 c -3.04563,0.85047 -6.06637,1.78618 -9.115,2.62896 -2.87983,0.65896 -5.61843,1.75766 -8.31112,2.95392 -1.85501,1.15217 -8.29934,4.30649 0.69232,-0.43789 0.66028,-0.34839 -1.27409,0.77852 -1.90814,1.17265 -2.01652,1.25348 -1.72137,1.07711 -3.66572,2.35835 -2.75176,1.76985 -4.63047,3.47305 -6.16766,6.36277 -0.29303,0.76842 -0.6696,1.48344 -0.57334,2.3481 0.27756,2.49319 3.88722,3.9803 5.7288,4.91675 5.28508,2.29862 10.98025,3.24139 16.68136,3.74175 2.26031,0.0467 4.55709,0.35575 6.82119,0.18569 0.61278,-0.046 1.37874,-0.23733 1.98245,-0.37196 0.27298,-0.0393 0.54595,-0.0786 0.81893,-0.11789 0,0 -5.87663,4.40252 -5.87663,4.40252 v 0 c -0.2573,0.0389 -0.51459,0.0778 -0.77189,0.11673 -2.85193,0.42422 -5.73052,-0.0305 -8.58719,-0.2238 -5.71258,-0.67057 -11.37307,-1.79806 -16.71012,-4.01652 -2.35338,-1.12735 -5.95636,-2.42262 -6.5217,-5.41335 -0.19189,-1.01515 0.13418,-1.67443 0.42452,-2.6 0.47821,-0.95108 0.67533,-1.42483 1.30147,-2.31592 1.29858,-1.84804 3.10118,-3.25436 4.97182,-4.48261 5.45853,-3.63055 11.09812,-7.00884 16.91784,-10.02652 2.72152,-1.1838 5.48628,-2.24816 8.39347,-2.88566 3.12373,-0.8451 6.22493,-1.77329 9.28284,-2.8339 0,0 -5.8085,4.53783 -5.8085,4.53783 z"
       inkscape:connector-curvature="0" /><path
       style="opacity:0.98999999;fill:#bc5fd3;fill-opacity:1;stroke:#000000;stroke-width:1.21000004;stroke-miterlimit:4;stroke-dasharray:none;stroke-opacity:0.61194033;paint-order:normal"
       id="path20348"
       d="m 201.87978,626.01412 c -1.78234,0.68352 -3.51086,1.49365 -5.23346,2.31342 -1.6842,0.88489 -0.30739,0.14144 -1.89346,1.05129 -0.27406,0.15722 -1.10124,0.62005 -0.82768,0.46195 9.87203,-5.70528 6.32244,-3.82609 4.2543,-2.27581 -2.73231,1.99188 -5.83062,3.47849 -8.71319,5.19581 -1.82447,1.08695 3.6761,-2.12791 5.52929,-3.16511 0.28024,-0.15684 -0.53931,0.34882 -0.80897,0.52323 -1.46713,0.92994 -2.81938,2.01821 -4.11572,3.1701 -1.4838,1.26971 -3.14675,2.31683 -4.7504,3.4286 -1.38538,0.94499 -2.66424,2.02839 -3.89723,3.16153 -0.98331,0.94942 -1.81755,2.02815 -2.55125,3.17727 -0.75585,1.18455 -1.17381,2.51105 -1.61018,3.8316 -0.55601,1.52159 -0.91389,3.1106 -1.24249,4.69486 -0.19017,1.25448 -0.39183,2.50534 -0.69417,3.73851 -0.37587,1.11072 -0.53097,2.26574 -0.6353,3.42774 -0.0762,1.27121 -0.0719,2.54549 -0.0842,3.81845 0.0727,2.26657 -0.15805,3.91394 -1.07825,6.00567 -1.35333,2.5176 -3.35996,4.57935 -5.31113,6.63483 -2.07317,2.00866 -3.97864,4.17794 -5.98075,6.25449 -3.53634,3.90314 -5.2295,4.32432 -10.69098,7.46712 -1.84449,0.9173 -3.7251,1.74368 -5.70608,2.31436 -2.55161,0.93041 -5.20297,1.48943 -7.88485,1.87303 -2.54449,0.27928 -5.09983,0.49841 -7.64483,0.15851 -2.10071,-0.30934 -3.71087,-1.5664 -5.24642,-2.94098 -0.89186,-0.91455 -1.65285,-1.93483 -2.34509,-3.00439 0,0 6.33102,-3.68768 6.33102,-3.68768 v 0 c 0.63141,1.03293 1.35399,1.99089 2.21826,2.84456 1.43159,1.29238 2.99532,2.35294 4.95621,2.59577 2.48812,0.24632 4.98877,0.0523 7.46432,-0.26358 2.69086,-0.42471 5.32656,-1.08687 7.89025,-2.01707 1.9512,-0.66129 3.83604,-1.48655 5.65884,-2.44843 -1.80792,1.06484 -3.61585,2.12967 -5.42377,3.1945 0.23441,-0.15651 0.47644,-0.30216 0.70323,-0.46953 1.12348,-0.82914 2.09078,-1.8611 3.06293,-2.85495 2.06839,-2.03446 3.94396,-4.25655 6.03903,-6.26648 1.93044,-1.9906 3.89438,-3.99813 5.33113,-6.38839 0.96529,-1.91804 1.25398,-3.51516 1.08484,-5.65314 -0.0112,-1.28526 -0.0151,-2.57108 0.0449,-3.85537 0.0591,-1.19864 0.18513,-2.40848 0.55172,-3.55647 0.38906,-1.20663 0.57257,-2.47048 0.77687,-3.71844 0.32457,-1.60661 0.68801,-3.2193 1.19168,-4.7772 0.48406,-1.33727 0.78542,-2.73686 1.52507,-3.97924 0.7421,-1.18942 1.50733,-2.34892 2.49252,-3.35863 1.2427,-1.17321 2.52433,-2.30786 3.92927,-3.28622 1.5761,-1.10209 3.19583,-2.15196 4.72185,-3.31767 1.29713,-1.18992 2.64392,-2.32752 4.11879,-3.29446 4.3035,-2.83562 -10.30002,6.76751 7.79064,-4.63555 1.82664,-1.15138 -3.7443,2.15166 -5.61004,3.23855 -1.29417,0.75393 3.16316,-1.73547 1.77895,-1.09136 0.42844,-0.32336 0.80885,-0.71522 1.2697,-0.99043 3.17158,-1.89399 6.38554,-3.80449 9.69411,-5.47564 1.80929,-0.85059 3.62031,-1.74687 5.53898,-2.32282 0,0 -5.96886,4.51929 -5.96886,4.51929 z"
       inkscape:connector-curvature="0" /><path
       style="opacity:0.98999999;fill:#bc5fd3;fill-opacity:1;stroke:#000000;stroke-width:1.21000004;stroke-miterlimit:4;stroke-dasharray:none;stroke-opacity:0.61194033;paint-order:normal"
       id="path20350"
       d="m 73.134182,712.76933 c -0.111781,1.87302 -0.08864,3.75033 -0.0842,5.62562 -0.01367,1.66393 0.16502,3.33423 0.434435,4.97533 0.295668,1.27679 0.456786,2.5749 0.559336,3.87967 0.02484,1.39513 0.140489,2.7865 0.390812,4.15948 0.232615,1.3475 0.519835,2.66057 0.933898,3.96276 0.434857,1.24615 0.570569,2.55902 0.827348,3.846 0.261618,1.27812 0.323584,2.58286 0.525814,3.87023 0.08699,1.35629 0.491961,2.48466 1.237965,3.60755 0.875282,1.3856 2.209396,1.98428 3.737669,2.37348 0.696007,0.0941 1.423534,0.2833 2.132571,0.2398 2.12302,-0.13025 7.542778,-3.72592 -3.786937,2.47592 3.020701,-2.55852 4.517192,-6.02895 5.640299,-9.72801 0.506938,-2.51867 1.250159,-5.16603 0.895775,-7.76451 -0.04756,-0.34874 -0.157924,-0.686 -0.236886,-1.02899 -0.859051,-2.38996 -2.651474,-4.28261 -4.284615,-6.17535 -1.067127,-1.1898 -0.53346,-0.6332 -1.593553,-1.6769 0,0 6.197105,-3.78362 6.197105,-3.78362 v 0 c 1.026843,1.11262 0.507373,0.52938 1.554324,1.75334 1.690282,2.0008 3.574747,3.95713 4.512329,6.44724 0.08641,0.3854 0.207504,0.76463 0.259233,1.15619 0.358903,2.71672 -0.492614,5.459 -1.012607,8.08926 -1.05236,3.74323 -2.460133,7.18661 -5.180418,10.05252 -4.818502,2.82237 -6.424925,5.34741 -11.166619,4.09376 -1.625769,-0.53807 -3.065629,-1.31949 -4.017901,-2.80293 -0.80811,-1.20741 -1.355117,-2.39777 -1.409544,-3.87408 -0.208996,-1.27869 -0.304026,-2.56489 -0.521984,-3.84213 -0.246596,-1.26165 -0.391483,-2.54439 -0.773464,-3.77565 -0.439574,-1.33003 -0.751111,-2.66471 -0.966687,-4.05089 -0.272356,-1.38974 -0.436992,-2.80484 -0.464888,-4.22089 -0.0709,-1.28832 -0.21364,-2.56859 -0.492648,-3.83039 -0.294129,-1.68558 -0.410131,-3.4132 -0.41843,-5.12225 0.0044,-1.84665 0.02969,-3.69558 -0.0842,-5.53982 0,0 6.656661,-3.39174 6.656661,-3.39174 z"
       inkscape:connector-curvature="0" /><path
       style="opacity:0.98999999;fill:#bc5fd3;fill-opacity:1;stroke:#000000;stroke-width:1.21000004;stroke-miterlimit:4;stroke-dasharray:none;stroke-opacity:0.61194033;paint-order:normal"
       id="path20352"
       d="m 196.92534,684.45719 c 2.00329,-2.21529 3.8184,-4.58596 5.61409,-6.96939 2.09855,-2.75829 3.60977,-5.56944 4.46771,-8.92266 0.4552,-2.52872 0.6574,-5.13362 0.43675,-7.6969 -0.23736,-1.97596 -0.43927,-3.96991 0.21479,-5.89513 0.15381,-0.45272 0.37305,-0.88049 0.55958,-1.32073 1.24907,-2.444 3.45871,-4.1404 5.81259,-5.46195 2.59184,-1.45513 5.21244,-2.85844 7.81865,-4.28767 4.11884,-1.67348 8.43991,-2.75499 12.80486,-3.54828 1.77479,-0.16926 3.88713,-0.30214 5.16555,1.22833 0.59473,0.71198 0.7024,1.35115 0.97693,2.21186 0.50362,2.76908 -0.61705,5.21025 -2.03742,7.51042 -2.44235,3.42991 -5.94285,4.58328 -9.7395,6.73587 0,0 5.72705,-4.57552 5.72705,-4.57552 v 0 c -12.96721,7.61771 -5.41021,3.45991 -4.05996,2.27794 0.59199,-0.5182 0.94882,-0.95711 1.477,-1.54845 1.44697,-2.05895 2.6118,-4.32298 2.28937,-6.91735 -0.22248,-0.69745 -0.31378,-1.26089 -0.80798,-1.82485 -1.13402,-1.29408 -3.09989,-1.00517 -4.59567,-0.87183 -4.34397,0.77305 -8.63442,1.89179 -12.68098,3.68138 1.4132,-0.87301 2.8301,-1.74005 4.23959,-2.61903 0.50323,-0.31383 -1.0184,0.60828 -1.52075,0.92352 -1.71132,1.07393 -3.34461,2.30105 -4.34522,4.10082 -0.1911,0.40167 -0.41213,0.79043 -0.57332,1.20501 -0.71036,1.82708 -0.52899,3.75136 -0.31706,5.65245 0.28184,2.6482 -0.007,5.31861 -0.39285,7.94519 -0.29598,1.26688 -0.34168,1.66738 -0.82465,2.89246 -0.89958,2.28184 -2.2675,4.34461 -3.65869,6.34853 -1.69,2.30019 -3.39603,4.59039 -5.18676,6.81353 0,0 -6.8637,2.93243 -6.8637,2.93243 z"
       inkscape:connector-curvature="0" /><path
       style="opacity:0.98999999;fill:#ff5599;fill-opacity:1;stroke:#000000;stroke-width:1.21000004;stroke-miterlimit:4;stroke-dasharray:none;stroke-opacity:0.61194033;paint-order:normal"
       id="path20354"
       d="m 272.23514,590.66764 c 0.98766,1.33204 1.56025,2.92242 2.26673,4.41322 1.16573,2.42027 1.59286,5.03625 1.82802,7.68445 0.20054,3.01612 0.34918,6.02596 -0.0971,9.02236 -0.70245,3.4354 -2.08884,6.67001 -3.30741,9.94251 -1.19118,2.43119 -1.94831,5.07086 -3.18541,7.47627 -0.59361,0.99027 -1.43347,1.77208 -2.43384,2.34461 -7.0051,4.00917 -4.75387,2.98624 -8.25377,4.5111 -0.39618,0.17313 -0.79237,0.34626 -1.18856,0.51939 0,0 5.6373,-4.46747 5.6373,-4.46747 v 0 c 0.40838,-0.18446 0.81676,-0.36891 1.22514,-0.55336 2.96683,-1.38291 1.03263,-0.52199 -4.23492,2.62018 -0.26151,0.15599 0.5431,-0.27691 0.8027,-0.43605 0.39281,-0.24081 0.9186,-0.63748 1.24557,-0.96807 0.18532,-0.18737 0.34191,-0.40112 0.51286,-0.60168 0.62298,-0.91969 0.98409,-1.86906 1.42866,-2.88615 0.66994,-1.5327 1.41281,-3.03272 2.04993,-4.58 1.17551,-3.22778 2.58355,-6.39592 3.28208,-9.77389 0.15986,-0.98787 0.32383,-1.81254 0.36684,-2.81376 0.0865,-2.01383 -0.10707,-4.04159 -0.18868,-6.05144 -0.25103,-2.54818 -0.62118,-5.09395 -1.82095,-7.39631 -0.68429,-1.39811 -1.25017,-2.93865 -2.31035,-4.09921 0,0 6.37516,-3.9067 6.37516,-3.9067 z"
       inkscape:connector-curvature="0" /><path
       style="opacity:0.98999999;fill:#ff5599;fill-opacity:1;stroke:#000000;stroke-width:1.21000004;stroke-miterlimit:4;stroke-dasharray:none;stroke-opacity:0.61194033;paint-order:normal"
       id="path20356"
       d="m 250.78526,646.34194 c -1.53862,-0.66052 -3.15488,-1.05974 -4.7621,-1.50611 -2.57023,-0.81103 -5.13491,-1.63642 -7.71603,-2.41509 -2.68826,-0.93087 -5.39437,-1.74505 -8.20901,-2.17847 -2.2214,-0.44474 -4.47871,-0.61562 -6.73705,-0.72376 -2.80401,-0.26886 -5.01491,0.23108 -7.54823,1.41292 -3.93293,2.22371 2.46862,-1.44474 3.71726,-2.14184 0.40712,-0.22729 -0.79724,0.48392 -1.1902,0.73488 -1.04221,0.6656 -2.03401,1.38613 -3.01703,2.13485 -1.62104,1.15308 -2.72361,2.6676 -3.39058,4.52108 -0.38142,1.3271 -0.57199,2.42013 0.17608,3.63118 0,0 -6.4093,3.71973 -6.4093,3.71973 v 0 c -0.85361,-1.42238 -0.82054,-2.65226 -0.39086,-4.23392 0.58215,-1.98445 1.60699,-3.70832 3.30025,-4.95362 3.92389,-3.12478 8.37799,-5.53893 12.81164,-7.84803 2.63604,-1.06287 4.97756,-1.47847 7.82304,-1.20764 2.27386,0.11042 4.53603,0.36818 6.7717,0.8058 2.79004,0.51842 5.46475,1.4311 8.15415,2.32091 2.6214,0.76399 5.24098,1.53419 7.86102,2.29938 1.68452,0.46253 3.37479,0.91199 5.01878,1.50657 0,0 -6.26353,4.12118 -6.26353,4.12118 z"
       inkscape:connector-curvature="0" /><path
       style="opacity:0.98999999;fill:#00ccff;fill-opacity:1;stroke:#000000;stroke-width:1.21000004;stroke-miterlimit:4;stroke-dasharray:none;stroke-opacity:0.61194033;paint-order:normal"
       id="path20358"
       d="m 134.7848,667.25808 c 0.18108,1.97124 0.58139,3.9142 0.87728,5.87031 0.36096,2.57794 0.41501,5.18076 0.46244,7.77871 -0.0268,2.70642 0.0904,5.41329 -0.0148,8.11829 -0.13681,2.27413 -0.69147,4.46153 -1.53827,6.56711 -0.93681,2.04442 -1.96662,4.04329 -3.31479,5.84707 -1.39216,1.54445 -3.14551,2.70175 -4.78104,3.96813 -3.76235,3.22891 -8.07897,5.6119 -12.45096,7.93832 -1.69044,0.93611 -3.56673,1.24374 -5.46653,1.37009 -2.65438,0.24679 -3.84487,-0.31417 -5.83976,-2.04069 -1.60835,-1.70192 -2.28813,-3.85339 -2.70174,-6.1011 -0.177989,-1.5002 -0.300544,-3.01963 -0.09756,-4.52058 0.24319,-0.92109 0.565,-2.00854 1.45324,-2.53052 6.78033,-3.98453 4.37305,-3.47338 7.74813,-4.06209 2.08496,-0.22555 4.18998,-0.18178 6.28468,-0.19707 1.35893,0.01 2.98441,0.0173 4.1443,0.86749 0.27744,0.20336 0.50025,0.4723 0.75037,0.70845 1.67028,1.87369 2.62544,4.18693 3.54719,6.48555 0.9369,2.14461 1.36201,4.42542 1.5706,6.74084 0.1478,2.18913 0.21487,4.38714 0.12778,6.58001 -0.15188,1.88673 -0.73357,3.6337 -1.73494,5.22825 -2.51185,3.57645 -5.0655,4.26793 -9.39345,6.81027 -1.58559,0.85201 -3.21188,1.62224 -4.87464,2.31687 -1.8073,0.73748 -3.58984,1.52304 -5.38635,2.28822 -1.50172,0.63755 -3.10018,0.99874 -4.564174,1.72251 1.903854,-1.07764 3.785844,-2.19487 5.711564,-3.23293 0.20694,-0.11155 -0.37849,0.28172 -0.54486,0.44781 -0.72538,0.72412 -0.96747,1.64688 -1.17686,2.61454 -0.20752,1.23939 -0.22603,2.64946 0.86344,3.50776 0.22902,0.18042 0.50152,0.29745 0.75229,0.44617 1.97247,0.82381 4.08301,0.92777 6.18513,0.79077 0.29058,-0.0536 0.58654,-0.0836 0.87175,-0.16083 0.41546,-0.11252 1.40856,-0.52022 1.77887,-0.70549 0.31709,-0.15864 1.23452,-0.69814 0.926,-0.52341 -5.6234,3.18487 -6.85539,4.12997 -4.15124,2.18509 2.23174,-1.69922 4.0904,-3.81145 5.84081,-5.98696 1.60489,-2.02837 2.94433,-4.24025 4.18284,-6.50503 1.31346,-2.39893 2.65244,-4.7696 4.19965,-7.02658 1.68311,-2.39372 3.35297,-4.79744 4.97379,-7.23393 1.61238,-2.64271 3.47748,-5.09972 5.61526,-7.33535 2.67081,-2.51498 5.39174,-4.97521 8.04559,-7.50858 1.70653,-1.71602 3.43257,-3.38285 5.37934,-4.82325 4.30533,-3.01686 8.10296,-5.05745 12.97913,-6.26229 2.1684,-0.35957 3.23239,0.0135 4.67679,1.62617 0.79712,0.98003 1.07112,2.15604 1.25902,3.37246 0,0 -6.53458,3.44146 -6.53458,3.44146 v 0 c -0.12489,-1.07686 -0.31516,-2.12536 -1.01185,-2.9984 -1.29508,-1.37417 -2.34105,-1.39895 -4.14749,-1.03383 -1.1526,0.30505 -2.28065,0.63973 -3.38721,1.08947 -0.38606,0.15692 -1.49769,0.7239 -1.1451,0.50176 2.32572,-1.46525 7.45288,-4.29797 4.0339,-2.40153 -0.62334,0.45206 -1.26944,0.87431 -1.8698,1.35647 -1.30503,1.04809 -2.39175,2.34863 -3.66466,3.43329 -2.67945,2.50234 -5.37228,4.99011 -8.05811,7.48557 -2.16948,2.14007 -4.02459,4.56382 -5.59727,7.17605 -1.60003,2.457 -3.33405,4.82583 -4.97278,7.25721 -1.58546,2.20297 -2.89626,4.54818 -4.18426,6.93415 -1.2723,2.29365 -2.54939,4.59053 -4.20552,6.63914 -1.68581,2.23579 -3.55644,4.35698 -5.72346,6.14052 -3.11883,2.4915 -1.06013,0.92624 -8.19578,5.02396 -1.15702,0.66444 -2.46427,1.07616 -3.79502,1.15276 -2.20682,0.0377 -4.42398,-0.18703 -6.440392,-1.15594 -0.292517,-0.19943 -0.61165,-0.36456 -0.87755,-0.5983 -1.193615,-1.04927 -1.42483,-2.5952 -1.194783,-4.08684 0.711535,-4.93401 3.214165,-4.6389 8.378175,-7.62263 1.48333,-0.59963 3.0351,-1.0143 4.50425,-1.65334 1.80695,-0.75078 3.57777,-1.5816 5.39706,-2.30297 1.66231,-0.73131 3.29345,-1.52621 4.87289,-2.42429 -9.87866,5.83323 -5.21952,3.60913 -3.05647,0.75815 1.08046,-1.4698 1.7517,-3.06467 1.95237,-4.89689 0.17548,-2.16164 0.0496,-4.33911 -0.0403,-6.50292 -0.20016,-2.24778 -0.55489,-4.47657 -1.46502,-6.56243 -0.85152,-2.19706 -1.71416,-4.45043 -3.42339,-6.14014 -0.23403,-0.17098 -0.4526,-0.36542 -0.70209,-0.51293 -1.15829,-0.68484 -2.60236,-0.63034 -3.89187,-0.65003 -2.07723,-0.0109 -4.18462,-0.053 -6.22644,0.38216 -2.84952,0.9853 -0.70794,0.29954 4.94884,-3.09794 0.1947,-0.11694 -0.42139,0.17703 -0.60994,0.30364 -0.6022,0.4044 -0.877,1.02531 -1.09068,1.69213 -0.3116,1.40945 -0.12621,2.89313 -0.0498,4.3237 0.27838,2.10682 0.82257,4.13262 2.35645,5.69763 2.04186,1.63849 3.0543,1.74279 5.60437,1.51272 1.82994,-0.19723 3.5998,-0.60802 5.20879,-1.54628 2.74154,-1.50015 1.37753,-0.76648 -3.99444,2.37354 -0.3826,0.21485 0.73812,-0.47536 1.09506,-0.73058 1.03709,-0.74154 1.98215,-1.60147 3.00836,-2.35717 1.57803,-1.29046 3.27242,-2.43299 4.79563,-3.79146 1.42541,-1.72449 2.48643,-3.66167 3.43148,-5.68736 0.89679,-2.01601 1.43803,-4.15415 1.67139,-6.35028 0.16506,-2.69143 0.0827,-5.39443 0.0646,-8.08945 -0.0409,-2.56245 -0.11012,-5.13187 -0.45356,-7.6748 -0.29421,-1.9288 -0.70327,-3.8348 -1.08787,-5.74681 0,0 6.59846,-3.50052 6.59846,-3.50052 z"
       inkscape:connector-curvature="0" /><path
       style="opacity:0.98999999;fill:#00ccff;fill-opacity:1;stroke:#000000;stroke-width:1.21000004;stroke-miterlimit:4;stroke-dasharray:none;stroke-opacity:0.61194033;paint-order:normal"
       id="path20360"
       d="m 210.42135,648.6233 c -2.65915,-0.1088 -5.32149,-0.12668 -7.98253,-0.14674 -2.88803,0.15062 -6.46438,-0.4225 -9.20587,0.66762 -0.39644,0.15764 -0.75114,0.40481 -1.12671,0.60722 9.11049,-5.36793 4.96326,-3.12048 3.33974,-0.80001 -0.82633,1.18105 -1.34216,2.41755 -1.82472,3.76423 -0.52926,1.79326 -0.89691,3.8673 0.35698,5.46238 0.19912,0.25331 0.45088,0.46041 0.67632,0.69061 0.76265,0.62573 1.69338,0.93061 2.59619,1.2858 0,0 -6.06074,4.05059 -6.06074,4.05059 v 0 c -0.9739,-0.42094 -1.95744,-0.81743 -2.74814,-1.55399 -0.25168,-0.27542 -0.53428,-0.52548 -0.75503,-0.82626 -1.3209,-1.79974 -1.14582,-4.03872 -0.54315,-6.06568 0.56422,-1.8446 1.30155,-3.57513 2.50378,-5.1085 0.27799,-0.35455 0.52461,-0.75915 0.8998,-1.00859 2.33961,-1.55545 4.8015,-2.91862 7.20225,-4.37794 0.3875,-0.15189 0.76214,-0.34191 1.16249,-0.45568 2.93223,-0.83322 6.18375,-0.24534 9.1812,-0.43995 2.7957,-0.0206 5.59241,-0.0419 8.38645,-0.14673 0,0 -6.05831,4.40162 -6.05831,4.40162 z"
       inkscape:connector-curvature="0" /></g></svg>